<svg xmlns="http://www.w3.org/2000/svg" width="289" height="60" viewBox="0 0 289 60">
  <g fill="none" fill-rule="evenodd">
    <g fill="#ED1C24" fill-rule="nonzero" transform="translate(244.31 3.289)">
      <path d="M1.23240472,1.15335156 C-3.8014528,5.79745539 13.2383069,19.6091693 13.2383069,19.6091693 C13.2383069,19.6091693 9.56063751,15.8114413 8.81250812,10.7540166 C7.86675966,4.35028422 4.76891765,-2.10826526 1.23240472,1.15335156" opacity=".9" transform="translate(0 4.385)"/>
      <path d="M11.4825374 1.01192347C4.97522329 3.0719497 14.6346703 22.860919 14.6346703 22.860919 14.6346703 22.860919 12.8941023 17.8495407 14.3338984 12.9477965 16.155903 6.74030933 16.0505785-.435247691 11.4825374 1.01192347M22.855407.252158612C15.7856386-.696177037 16.281858 22.3609872 16.281858 22.3609872 16.281858 22.3609872 16.8236817 16.8354245 20.3319634 12.8326807 24.7773069 7.76319622 27.814343.917638078 22.855407.252158612M32.689671 6.29957993C26.9435161 2.59065565 18.1386087 22.7830787 18.1386087 22.7830787 18.1386087 22.7830787 20.8194962 18.2135262 25.4646304 16.1765231 31.3475985 13.5946382 36.7213174 8.90339168 32.689671 6.29957993"/>
      <path d="M20.1267435,1.39792468 C16.4707905,-4.4148795 0.0412611272,10.1280943 0.0412611272,10.1280943 C0.0412611272,10.1280943 4.38453768,7.1306959 9.44445486,7.26773862 C15.8573027,7.4376716 22.6925342,5.47741248 20.1267435,1.39792468" opacity=".9" transform="translate(19.545 13.725)"/>
      <path d="M22.1989041,3.60266801 C21.3172189,-3.22425231 0.338107375,2.94486294 0.338107375,2.94486294 C0.338107375,2.94486294 5.52832285,2.08204195 10.0605319,4.36462556 C15.7969144,7.2567752 22.8145635,8.39806701 22.1989041,3.60266801" opacity=".8" transform="translate(20.11 22.496)"/>
      <path d="M19.8546206,10.341881 C21.9155053,3.77698636 0.319648449,0.417795115 0.319648449,0.417795115 C0.319648449,0.417795115 5.38499473,1.85071383 8.53604187,5.85455405 C12.527513,10.9218458 18.4083095,14.9487092 19.8546206,10.341881" opacity=".7" transform="translate(20.11 26.881)"/>
    </g>
    <path fill="#231F20" fill-rule="nonzero" d="M12.3392487 3.20131803C12.2480399 3.37673271 12.1155699 3.46334372 11.9429247 3.46334372 11.8093689 3.46334372 11.6378095 3.36905832 11.4293322 3.17829485 11.2197692 2.98862772 10.9363704 2.77703375 10.57805 2.54570564 10.2208155 2.31437752 9.77454388 2.10168721 9.23814923 1.90653837 8.70175457 1.71138953 8.04049072 1.61381512 7.25327184 1.61381512 6.46713879 1.61381512 5.775472 1.72673832 5.17718565 1.95258473 4.57998512 2.17843114 4.08050832 2.48759952 3.67549778 2.8778972 3.27265888 3.26929122 2.96645789 3.72098404 2.75689479 4.23407199 2.5473317 4.74935263 2.44309306 5.2887528 2.44309306 5.85446516 2.44309306 6.59449587 2.5983652 7.20515824 2.90890947 7.68974132 3.22053956 8.1721317 3.62989338 8.58325988 4.14022837 8.92312583 4.65056337 9.26189544 5.22930497 9.54694431 5.87645318 9.77827243 6.5246872 10.0096005 7.18920851 10.238736 7.87218875 10.4645824 8.55516899 10.6904288 9.22077612 10.9403947 9.86792433 11.2122875 10.5150725 11.4852766 11.0949 11.8262389 11.6030633 12.2373671 12.1133983 12.6484952 12.5238379 13.1550051 12.8343822 13.7568968 13.1460123 14.3587884 13.3012844 15.1053972 13.3012844 16.0000121 13.3012844 16.9154575 13.1460123 17.7760858 12.835468 18.5829933 12.5249238 19.3909972 12.0743088 20.0915596 11.4836232 20.6879696 10.8940234 21.2843795 10.1708679 21.7547101 9.31524239 22.0989615 8.46070272 22.4432128 7.48237968 22.6153384 6.38353071 22.6153384 4.95785018 22.6153384 3.73087456 22.3620835 2.70260383 21.8522846 1.67433311 21.343582.773103226 20.6474049 7.71520901e-15 19.7626571L.426726921 19.0840215C.549424484 18.9305337.691666791 18.8526934.854539662 18.8526934.946834288 18.8526934 1.06301694 18.9151849 1.20634506 19.0379752 1.34967319 19.1618618 1.52231843 19.313157 1.72645243 19.492957 1.93058643 19.6727571 2.17489573 19.8679059 2.46046617 20.0794999 2.7460366 20.2899975 3.07721144 20.4851463 3.45399068 20.6649464 3.83185574 20.8447465 4.26401176 20.9960416 4.75480201 21.1199282 5.24342062 21.2427185 5.80044584 21.30521 6.42153438 21.30521 7.27824568 21.30521 8.04266236 21.1747453 8.71587022 20.9116233 9.38799227 20.6495976 9.9569615 20.2921902 10.4206063 19.8404974 10.884251 19.3877082 11.2382281 18.8505007 11.4836232 18.2288749 11.7290183 17.6072491 11.8506301 16.9406733 11.8506301 16.2324365 11.8506301 15.4606119 11.6942721 14.8269264 11.3837278 14.3269945 11.0731836 13.828159 10.6627439 13.4115491 10.1524089 13.0782612 9.64315976 12.743877 9.06441816 12.4643098 8.41726996 12.2373671 7.77012175 12.0115207 7.10451462 11.791156 6.42153438 11.5751766 5.73855414 11.3581009 5.07294701 11.1180021 4.42579881 10.8504947 3.77756478 10.581891 3.199909 10.2409287 2.689574 9.82431878 2.18032483 9.4077089 1.76988519 8.88913923 1.4582551 8.26751344 1.14662501 7.64588764.992438692 6.86638863.992438692 5.93120908.992438692 5.20104545 1.13033772 4.49719402 1.40504996 3.81746211 1.68084803 3.13992289 2.08368693 2.54132027 2.61356667 2.0227506 3.1434464 1.50308459 3.79819534 1.08647471 4.57889931.772920962 5.35743163.45936721 6.24780332.302590334 7.24784275.302590334 8.3684081.302590334 9.37604826.483486729 10.2675058.843086837 11.1589633 1.20268694 11.9722418 1.75305052 12.7062556 2.49308123L12.3392487 3.20131803zM17.4393412 7.02535819L17.4393412 16.8321355C17.4393412 18.2727286 17.7661727 19.399768 18.4198359 20.217639 19.0745848 21.0344136 20.0702809 21.4433491 21.4080101 21.4433491 22.3982772 21.4433491 23.3233951 21.1889978 24.182278 20.6802952 25.0400751 20.1704963 25.8110067 19.4644521 26.4961586 18.5599702L26.4961586 7.02535819 27.946813 7.02535819 27.946813 22.3686615 27.1465643 22.3686615C26.8653371 22.3686615 26.7198373 22.2349078 26.7089792 21.9674004L26.5710801 19.6859132C25.8685551 20.5695647 25.0552766 21.2788978 24.1323303 21.8128163 23.2093841 22.3489274 22.1821992 22.6153384 21.0507756 22.6153384 20.2049225 22.6153384 19.4654797 22.4815847 18.8324471 22.2140774 18.2005004 21.94657 17.6760497 21.561754 17.2580094 21.0585331 16.839969 20.5542159 16.5239956 19.9479389 16.3100893 19.2386057 16.0961829 18.5292726 15.9886868 17.7278467 15.9886868 16.8321355L15.9886868 7.02535819 17.4393412 7.02535819 17.4393412 7.02535819zM38.5302921 7.95067066C37.5215661 7.95067066 36.6073064 8.21598538 35.7896846 8.74551846 34.9698912 9.27505154 34.2434782 10.0128896 33.6126172 10.9579362L33.6126172 19.0072776C34.1935305 19.8920254 34.8374212 20.5136512 35.5442895 20.8732513 36.2511577 21.2328514 37.0590072 21.4126515 37.9645803 21.4126515 38.861467 21.4126515 39.6443425 21.2482002 40.3175504 20.9192977 40.9896725 20.5903952 41.551041 20.1244499 42.0038275 19.5236546 42.4576999 18.9228593 42.7986471 18.2036591 43.027755 17.3649576 43.2568628 16.5273525 43.3708738 15.6042327 43.3708738 14.5966946 43.3708738 12.314111 42.9560909 10.636708 42.1276109 9.56229309 41.2969593 8.48787814 40.0971291 7.95067066 38.5302921 7.95067066M32.1619629 27.7966497L32.1619629 7.02535819 32.9556967 7.02535819C33.0881666 7.02535819 33.1945769 7.05495942 33.2760133 7.10977651 33.3574497 7.16678628 33.4030541 7.26764973 33.4139123 7.4112705L33.5518114 9.78594682C34.2228476 8.86063435 35.0100665 8.12608535 35.9112964 7.58120348 36.8125262 7.03632161 37.822338 6.7633325 38.9429034 6.7633325 40.8148556 6.7633325 42.270939 7.41675221 43.310068 8.72139894 44.3481111 10.0282384 44.8682184 11.9863048 44.8682184 14.5966946 44.8682184 15.7182522 44.7227187 16.763066 44.4328049 17.7355211 44.1428912 18.70688 43.7172501 19.5499668 43.1580533 20.2636853 42.5977706 20.9785002 41.9071896 21.5409235 41.0873962 21.9520517 40.2686886 22.3631798 39.3240259 22.5692921 38.2555799 22.5692921 37.216451 22.5692921 36.3206502 22.3785286 35.5670917 21.998098 34.8135332 21.6187638 34.1631275 21.0530514 33.6126172 20.3031536L33.6126172 27.7966497 32.1619629 27.7966497 32.1619629 27.7966497zM50.3049148 14.4432067L59.9871641 14.4432067 55.5743951 3.41729736C55.5016452 3.24297902 55.431067 3.04563749 55.3594029 2.82417645 55.2888247 2.60271541 55.2160748 2.36919461 55.1454966 2.12251771 55.0749183 2.36919461 55.0032543 2.60271541 54.932676 2.82417645 54.8599261 3.04563749 54.7893479 3.24846072 54.7176838 3.43264614L50.3049148 14.4432067 50.3049148 14.4432067zM64.7669399 22.3686615L63.5605949 22.3686615C63.4183526 22.3686615 63.3010841 22.3302896 63.2098753 22.2535457 63.1186665 22.1768017 63.0459166 22.0759383 62.9959689 21.953148L60.4453798 15.6140998 49.8304119 15.6140998 47.29611 21.953148C47.2548489 22.0660712 47.1842706 22.1636456 47.0822036 22.2458713 46.9801366 22.3270006 46.8585249 22.3686615 46.7151968 22.3686615L45.525139 22.3686615 54.3669642.549267237 55.9251147.549267237 64.7669399 22.3686615 64.7669399 22.3686615zM72.3264128 22.3686615L71.0429746 22.3686615 64.6290409 7.02535819 65.7745801 7.02535819C65.9168224 7.02535819 66.0308334 7.06373015 66.117699 7.14047408 66.2045645 7.21831435 66.2686278 7.30273266 66.3088031 7.39592172L71.3176868 19.5006314C71.4197538 19.7374412 71.4957611 19.9632877 71.5467946 20.179267 71.5978281 20.39415 71.6488616 20.6101293 71.6998951 20.8261086 71.7509286 20.6101293 71.8052196 20.3919573 71.8595106 20.1704963 71.9159732 19.9501316 71.9898089 19.7264778 72.0810177 19.5006314L77.1213901 7.39592172C77.1724236 7.28190217 77.2408302 7.19200214 77.3276957 7.12622164 77.4145613 7.05824844 77.5187999 7.02535819 77.6414975 7.02535819L78.7403464 7.02535819 72.3264128 22.3686615 72.3264128 22.3686615zM86.6125352 7.8728304C85.8296596 7.8728304 85.1282204 7.99671702 84.5082177 8.24339392 83.888215 8.48897448 83.3518203 8.84528556 82.8990337 9.3079418 82.447333 9.76950169 82.0814119 10.3242506 81.8012706 10.9721886 81.5222151 11.6201266 81.33654 12.3448086 81.2453312 13.1473307L91.2489829 13.1473307C91.2489829 12.3250744 91.1360577 11.5872364 90.912379 10.9338167 90.6887002 10.2814933 90.3738127 9.72893705 89.9677163 9.27614789 89.5605341 8.82445507 89.0730014 8.47801106 88.5029463 8.23571953 87.9339771 7.99342799 87.304202 7.8728304 86.6125352 7.8728304M86.589733 6.77868129C87.4453585 6.77868129 88.2369206 6.92778377 88.9655053 7.2248924 89.6930041 7.52419371 90.323865 7.95834505 90.858088 8.52844279 91.3933968 9.09854052 91.8103514 9.8012956 92.1100375 10.633419 92.4118952 11.4655424 92.5617382 12.4215525 92.5617382 13.5014491 92.5617382 13.7283919 92.5280778 13.8818797 92.4629287 13.9641054 92.3956079 14.046331 92.2913693 14.087992 92.1502128 14.087992L81.1834395 14.087992 81.1834395 14.3807153C81.1834395 15.5318741 81.3159094 16.544894 81.5808493 17.4186784 81.8447033 18.2924628 82.2225684 19.0248191 82.711187 19.6157473 83.1998056 20.2066755 83.7894054 20.650694 84.482158 20.9499953 85.1749106 21.2471039 85.9490997 21.3962064 86.8047252 21.3962064 87.568056 21.3962064 88.2293199 21.3117881 88.7896026 21.1429514 89.3498852 20.9719221 89.8200449 20.782255 90.2022533 20.5717574 90.5833758 20.3612597 90.8874051 20.1704963 91.1110839 20.0016596 91.3347626 19.8317266 91.4976355 19.746212 91.5997025 19.746212 91.7321724 19.746212 91.8342394 19.79774 91.9048177 19.9007962L92.3011416 20.39415C92.0579182 20.702222 91.7343441 20.9905599 91.332591 21.2580673 90.9308379 21.5255747 90.4813088 21.7536138 89.9872611 21.9443773 89.4942992 22.1340444 88.9655053 22.2853396 88.3997935 22.3993591 87.8351675 22.5122823 87.2672841 22.5681958 86.6972291 22.5681958 85.6581002 22.5681958 84.7112659 22.3851067 83.8567262 22.0211212 83.0011007 21.6560394 82.267087 21.1243136 81.6557708 20.4248476 81.042283 19.7264778 80.5688659 18.8702349 80.2344336 17.8572151 79.9000013 16.8452916 79.7327851 15.6864583 79.7327851 14.3807153 79.7327851 13.2810844 79.8880573 12.2658719 80.1986015 11.3350778 80.5091458 10.4053799 80.9575891 9.60285774 81.5428456 8.92970388 82.1281021 8.25655002 82.8458286 7.72920962 83.696025 7.34877902 84.5462214 6.96944476 85.5104288 6.77868129 86.589733 6.77868129M95.7377592 22.3686615L95.7377592 7.02535819 96.531493 7.02535819C96.7975187 7.02535819 96.9495334 7.15363018 96.9897087 7.41017416L97.1276077 9.72455168C97.8203603 8.83980385 98.6271239 8.12827803 99.5489844 7.58887787 100.469759 7.04838137 101.495858 6.77868129 102.626196 6.77868129 103.460105 6.77868129 104.19629 6.91243499 104.83258 7.17994238 105.46887 7.44744978 105.995493 7.83226575 106.413533 8.33548663 106.830488 8.83980385 107.146461 9.44608086 107.360367 10.155414 107.573188 10.8647471 107.680684 11.666173 107.680684 12.5618842L107.680684 22.3686615 106.23003 22.3686615 106.23003 12.5618842C106.23003 11.1223875 105.904284 9.99425176 105.252792 9.17638078 104.601301 8.35960615 103.603433 7.95067066 102.259189 7.95067066 101.261321 7.95067066 100.335117 8.21050367 99.479492 8.73016967 98.6249523 9.24873934 97.8605356 9.96136151 97.1894994 10.8647471L97.1894994 22.3686615 95.7377592 22.3686615 95.7377592 22.3686615zM113.407294 22.3686615L111.95664 22.3686615 111.95664 7.02535819 113.407294 7.02535819 113.407294 22.3686615zM114.049013 1.7366054C114.049013 1.92188716 114.009924 2.09401282 113.933916 2.25407872 113.857909 2.41304828 113.758014 2.55338003 113.636402 2.67726665 113.513704 2.80115327 113.371462 2.89872769 113.208589 2.96998991 113.045716 3.04234847 112.873071 3.07852775 112.689568 3.07852775 112.506064 3.07852775 112.332333 3.04234847 112.16946 2.96998991 112.007673 2.89872769 111.864345 2.80115327 111.742733 2.67726665 111.620036 2.55338003 111.523398 2.41304828 111.451734 2.25407872 111.381156 2.09401282 111.345324 1.92188716 111.345324 1.7366054 111.345324 1.55132363 111.381156 1.3748126 111.451734 1.20487963 111.523398 1.03494665 111.620036.889133192 111.742733.76524657 111.864345.642456289 112.007673.543785528 112.16946.472523312 112.332333.400164753 112.506064.363985474 112.689568.363985474 112.873071.363985474 113.045716.400164753 113.208589.472523312 113.371462.543785528 113.513704.642456289 113.636402.76524657 113.758014.889133192 113.857909 1.03494665 113.933916 1.20487963 114.009924 1.3748126 114.049013 1.55132363 114.049013 1.7366054M118.050257 22.3686615L118.050257 7.02535819 118.813588 7.02535819C118.986233 7.02535819 119.112188 7.06153747 119.188195 7.13389603 119.264202 7.20515824 119.307635 7.32904487 119.317408 7.50336321L119.440105 10.7419569C119.927638 9.49870527 120.580215 8.52405742 121.39458 7.81910965 122.208944 7.11525822 123.212241 6.7633325 124.403384 6.7633325 124.8616 6.7633325 125.283984 6.81266788 125.671621 6.90914596 126.058173 7.00781672 126.424094 7.14814847 126.77047 7.33343023L126.572851 8.35193176C126.541362 8.51638303 126.440381 8.59751232 126.26665 8.59751232 126.205844 8.59751232 126.118979 8.57777817 126.007139 8.53721352 125.8953 8.49555253 125.755229 8.44950618 125.586927 8.39797811 125.418625 8.34645005 125.213406 8.30040369 124.96801 8.25874271 124.723701 8.21817806 124.444646 8.19734756 124.128672 8.19734756 122.977704 8.19734756 122.034127 8.55694767 121.29577 9.27724423 120.557413 9.99644444 119.959127 11.0346801 119.500911 12.3908549L119.500911 22.3686615 118.050257 22.3686615 118.050257 22.3686615z"/>
    <g fill="#231F20" transform="translate(0 28.505)">
      <path fill-rule="nonzero" d="M4.99802549 29.8621577C2.95125642 29.3063124 1.28452404 28.5520292 1.92880225e-15 27.5960192L2.32148132 22.3116518C3.68527015 23.1854362 5.13701034 23.855301 6.67018696 24.3190536 8.20553523 24.7817098 9.7473984 25.0141343 11.2946907 25.0141343 12.8702142 25.0141343 14.0765593 24.7948659 14.9169833 24.3585219 15.7552357 23.9221779 16.1754477 23.3038411 16.1754477 22.5100896 16.1754477 21.7952748 15.7964968 21.2065392 15.0353376 20.7416903 14.2741784 20.2790341 12.8419829 19.8218596 10.7430946 19.3712631 8.09369585 18.84173 6.03389695 18.1839249 4.56478366 17.4044259 3.09567036 16.6227342 2.065228 15.7018071 1.47454239 14.6427409.886028417 13.5825784.590685611 12.2954732.590685611 10.7869069.590685611 9.06455392 1.07496095 7.50774858 2.04568326 6.11649085 3.01640557 4.72632946 4.38128022 3.63985474 6.13813559 2.85816305 7.89607677 2.07647135 9.90375636 1.68727002 12.1611743 1.68727002 14.1818838 1.68727002 16.1428731 1.97122254 18.0452283 2.54022393 19.9486692 3.10922532 21.4362414 3.85802676 22.513374 4.78553191L20.2298964 10.0709957C18.9964058 9.19721128 17.6977661 8.52734644 16.3328915 8.06469021 14.9691026 7.60093763 13.6031422 7.36960951 12.2404391 7.36960951 10.9016241 7.36960951 9.82557738 7.62834618 9.01229885 8.14362682 8.19793449 8.66110014 7.79292395 9.35618084 7.79292395 10.2299652 7.79292395 10.7068739 7.93625208 11.104846 8.22616579 11.4227851 8.51390786 11.7407242 9.05138833 12.0531816 9.83969303 12.3568683 10.6258261 12.6616513 11.8071973 12.9861685 13.3805492 13.3304198 15.9278809 13.8862651 17.926874 14.5561299 19.3840433 15.3378216 20.8401267 16.118417 21.8705691 17.0327661 22.4731987 18.0797725 23.078 19.1256825 23.3798577 20.3788012 23.3798577 21.8347431 23.3798577 24.5909464 22.3168407 26.7573177 20.1897211 28.3327609 18.0658588 29.9093004 15.0744271 30.6975701 11.2165117 30.6975701 9.11653748 30.6975701 7.04479457 30.4190993 4.99802549 29.8621577M39.8321893 23.9813803C40.5129979 23.1064996 40.8528592 21.8478992 40.8528592 20.2055792 40.8528592 18.5358506 40.5129979 17.2586125 39.8321893 16.3705756 39.149209 15.4825388 38.1774009 15.0396167 36.9189365 15.0396167 35.6843602 15.0396167 34.7147237 15.4956949 34.0056838 16.4111403 33.2977297 17.324393 32.9437526 18.6147873 32.9437526 20.2856121 32.9437526 21.9016199 33.283614 23.1404862 33.9676801 24.0011145 34.6484887 24.8628391 35.6322408 25.2937014 36.9189365 25.2937014 38.1774009 25.2937014 39.149209 24.8551647 39.8321893 23.9813803M47.860736 10.1510286L47.860736 30.3401627 40.8528592 30.3401627 40.8528592 27.5982119C40.2762893 28.5520292 39.4391227 29.3008307 38.3359305 29.8424235 37.2338241 30.3851127 36.0263932 30.6581018 34.7147237 30.6581018 33.007816 30.6581018 31.4865834 30.2338175 30.1488542 29.385249 28.8100392 28.5388731 27.7676528 27.3263191 27.0206092 25.7497796 26.271394 24.1743365 25.8978723 22.3522164 25.8978723 20.2856121 25.8978723 18.1915993 26.2768231 16.3376854 27.0379824 14.7216776 27.8002274 13.1056698 28.8491287 11.845973 30.1868579 10.9447801 31.5256729 10.0446835 33.0360473 9.59408701 34.7147237 9.59408701 36.0263932 9.59408701 37.2262233 9.88023221 38.3163857 10.4492336 39.4032907 11.018235 40.2513154 11.7801925 40.8528592 12.7340099L40.8528592 10.1510286 47.860736 10.1510286 47.860736 10.1510286zM51.7968303 10.1510286L58.9219755 10.1510286 58.9219755 30.3401627 51.7968303 30.3401627 51.7968303 10.1510286 51.7968303 10.1510286zM51.5992113.255447637L59.0381582.255447637 59.0381582 6.73373128 51.5992113 6.73373128 51.5992113.255447637zM81.5330733 11.7604584C82.7003288 13.2032442 83.2834137 15.383868 83.2834137 18.2979445L83.2834137 30.3390664 76.1604402 30.3390664 76.1604402 18.6158836C76.1604402 17.3715357 75.9497912 16.4769208 75.5306651 15.9331352 75.1093672 15.390446 74.4524467 15.1196496 73.5631608 15.1196496 72.4860282 15.1196496 71.6195445 15.4836351 70.9637098 16.2116061 70.307875 16.9406733 69.9799576 17.9010687 69.9799576 19.0916959L69.9799576 30.3390664 62.8558983 30.3390664 62.8558983 15.9528694C62.8558983 13.7810163 62.7505738 11.8470694 62.5410107 10.1499323L69.2329141 10.1499323 69.5868911 13.1308856C70.3480503 11.9928828 71.2916271 11.1180021 72.4197932 10.5073397 73.5490451 9.89996636 74.8205393 9.59518335 76.2386191 9.59518335 78.6002758 9.59518335 80.3647319 10.3165762 81.5330733 11.7604584M100.798762 24.6172586L100.798762 30.0616919C99.8291257 30.4585676 98.5945494 30.6570055 97.0993764 30.6570055 94.3967726 30.6570055 92.3434886 29.8884699 90.9395244 28.3535914 89.5344745 26.8165202 88.8341211 24.6830391 88.8341211 21.9542443L88.8341211 15.4364924 85.0934742 15.4364924 85.0934742 10.1510286 88.8341211 10.1510286 88.8341211 5.57928337 95.9570947 3.27696561 95.9570947 10.1510286 100.759673 10.1510286 100.759673 15.4364924 95.9570947 15.4364924 95.9570947 21.9542443C95.9570947 22.9080617 96.2383218 23.6305509 96.8051194 24.1195194 97.3675737 24.6095842 98.0700987 24.8562611 98.9094369 24.8562611 99.3817682 24.8562611 100.012629 24.7751318 100.798762 24.6172586M109.143282 17.6215016L115.520298 17.6215016C115.25753 15.5548973 114.234688 14.5221434 112.448516 14.5221434 110.689489 14.5221434 109.588468 15.5548973 109.143282 17.6215016M121.62043 20.9609587L109.064018 20.9609587C109.195402 22.5243421 109.640587 23.6502851 110.401747 24.3387877 111.162906 25.0283867 112.278042 25.3715417 113.748241 25.3715417 114.745023 25.3715417 115.742891 25.2059941 116.739673 24.8748989 117.736455 24.5438037 118.642028 24.0866291 119.454221 23.5033753L121.265367 28.2735584C120.267499 29.0146855 119.061154 29.5979393 117.64416 30.0211272 116.227166 30.4443152 114.810172 30.6581018 113.393178 30.6581018 111.110787 30.6581018 109.129167 30.2338175 107.45049 29.385249 105.771814 28.5388731 104.485118 27.3263191 103.592575 25.7497796 102.701117 24.1743365 102.254846 22.3116518 102.254846 20.1661109 102.254846 18.1247225 102.681573 16.3036988 103.533941 14.7019434 104.387394 13.0979954 105.56768 11.845973 107.075883 10.9447801 108.585171 10.0446835 110.310538 9.59408701 112.253068 9.59408701 114.141308 9.59408701 115.796096 10.0183713 117.212004 10.8658435 118.627912 11.7133157 119.718075 12.926966 120.479234 14.5024092 121.240393 16.0789487 121.62043 17.9142249 121.62043 20.0071413L121.62043 20.9609587 121.62043 20.9609587z"/>
      <rect width="12.752" height="5.564" x="125.006" y="16.787"/>
      <path fill-rule="nonzero" d="M145.432444 27.5784777C143.333555 25.4987174 142.284654 22.4454055 142.284654 18.4174457L142.284654 2.04467744 149.485807 2.04467744 149.485807 18.6959165C149.485807 20.7362086 149.939679 22.299592 150.845252 23.3849704 151.749739 24.4725414 153.041864 25.0152306 154.722712 25.0152306 156.374243 25.0152306 157.646823 24.4659634 158.539367 23.3663326 159.43191 22.2656054 159.878182 20.7098964 159.878182 18.6959165L159.878182 2.04467744 167.158599 2.04467744 167.158599 18.4174457C167.158599 22.3916847 166.091239 25.4307442 163.952175 27.5379131 161.812025 29.645082 158.736986 30.6975701 154.722712 30.6975701 150.628088 30.6975701 147.531332 29.6593344 145.432444 27.5784777M186.170206 10.110464L186.170206 16.6687806C185.040954 16.1392475 183.952963 15.8739328 182.902976 15.8739328 179.911545 15.8739328 178.416372 17.3189113 178.416372 20.2066755L178.416372 30.3390664 171.292312 30.3390664 171.292312 15.9528694C171.292312 13.7810163 171.186988 11.8470694 170.977425 10.1510286L177.668242 10.1510286 178.101484 13.5288577C178.573815 12.2834134 179.333889 11.3306924 180.384962 10.6674056 181.432777 10.0063115 182.615234 9.67302361 183.925818 9.67302361 184.897626 9.67302361 185.645755 9.81993341 186.170206 10.110464M186.524183 28.2329938L188.335329 23.3444057C189.411376 24.0866291 190.631837 24.6644013 191.995626 25.0744331 193.359415 25.4855613 194.699315 25.6905772 196.009899 25.6905772 196.823178 25.6905772 197.454039 25.5699796 197.90031 25.3309771 198.345496 25.0941672 198.568089 24.763072 198.568089 24.3376914 198.568089 23.9682242 198.40413 23.6711156 198.077299 23.4441728 197.748296 23.2194228 197.125035 23.0144069 196.207518 22.8291251L192.979378 22.0737456C190.932609 21.6494613 189.456981 20.9795965 188.550322 20.0674401 187.64692 19.1519947 187.195219 17.8868163 187.195219 16.2708085 187.195219 14.9727398 187.57417 13.8215809 188.335329 12.8140428 189.096489 11.8065047 190.152991 11.018235 191.504836 10.4492336 192.854509 9.87913587 194.409402 9.59518335 196.168429 9.59518335 197.610397 9.59518335 199.028476 9.80787365 200.419411 10.2310616 201.810345 10.6553459 203.108985 11.2495631 204.316416 12.0180987L202.426004 16.7871855C201.376017 16.0986828 200.301056 15.5691498 199.19895 15.1974899 198.097929 14.8269264 197.059886 14.6416446 196.09025 14.6416446 195.300859 14.6416446 194.6852 14.7677239 194.240014 15.0187862 193.792656 15.2709448 193.570064 15.6349303 193.570064 16.1129353 193.570064 16.4034659 193.701448 16.6358903 193.96313 16.808016 194.225898 16.9801416 194.724289 17.157749 195.460475 17.3452235L198.804798 18.0995066C200.930831 18.6038238 202.459665 19.3383728 203.391298 20.3064426 204.321845 21.2723198 204.787661 22.5901226 204.787661 24.2587548 204.787661 26.2464225 204.006957 27.8098058 202.446635 28.9500013 200.885227 30.0869077 198.725533 30.6581018 195.97081 30.6581018 191.98151 30.6581018 188.83372 29.8511943 186.524183 28.2329938M227.655012 10.1510286L227.655012 30.3401627 220.688397 30.3401627 220.688397 27.6376802C219.403872 29.6516601 217.500432 30.6581018 214.980245 30.6581018 212.435085 30.6581018 210.540331 29.943287 209.29381 28.5114646 208.04729 27.0807386 207.42403 24.8968257 207.42403 21.953148L207.42403 10.1510286 214.548089 10.1510286 214.548089 22.1526822C214.548089 24.1392535 215.400457 25.1325392 217.107365 25.1325392 218.103061 25.1325392 218.910911 24.7762281 219.52657 24.0614133 220.143315 23.3455021 220.452774 22.3916847 220.452774 21.1988649L220.452774 10.1510286 227.655012 10.1510286 227.655012 10.1510286z"/>
      <rect width="7.124" height="29.25" x="231.592" y="1.09"/>
      <path fill-rule="nonzero" d="M248.634124,17.6215016 L255.010054,17.6215016 C254.747285,15.5548973 253.724444,14.5221434 251.939357,14.5221434 C250.18033,14.5221434 249.07931,15.5548973 248.634124,17.6215016 M261.111271,20.9609587 L248.553773,20.9609587 C248.686243,22.5243421 249.130343,23.6502851 249.891502,24.3387877 C250.652661,25.0283867 251.767798,25.3715417 253.239083,25.3715417 C254.234779,25.3715417 255.232647,25.2059941 256.230514,24.8748989 C257.227296,24.5438037 258.131784,24.0866291 258.945062,23.5033753 L260.756209,28.2735584 C259.758341,29.0146855 258.551996,29.5979393 257.133916,30.0211272 C255.716922,30.4443152 254.301014,30.6581018 252.88402,30.6581018 C250.601628,30.6581018 248.620008,30.2338175 246.941332,29.385249 C245.261569,28.5388731 243.97596,27.3263191 243.083416,25.7497796 C242.191959,24.1743365 241.745687,22.3116518 241.745687,20.1661109 C241.745687,18.1247225 242.172414,16.3036988 243.024782,14.7019434 C243.878236,13.0979954 245.057435,11.845973 246.565638,10.9447801 C248.076013,10.0446835 249.801379,9.59408701 251.742824,9.59408701 C253.632149,9.59408701 255.285852,10.0183713 256.70176,10.8658435 C258.117668,11.7133157 259.20783,12.926966 259.96899,14.5024092 C260.730149,16.0789487 261.111271,17.9142249 261.111271,20.0071413 L261.111271,20.9609587 L261.111271,20.9609587 Z"/>
    </g>
  </g>
</svg>
